<svg width="20" height="20" viewBox="0 0 20 20" fill="none" xmlns="http://www.w3.org/2000/svg">
<path d="M19.2188 13.75C19.6503 13.75 20 13.4003 20 12.9688V3.125C20 1.40182 18.5982 0 16.875 0H3.125C1.40182 0 0 1.40182 0 3.125V16.875C0 18.5982 1.40182 20 3.125 20H16.875C18.5982 20 20 18.5982 20 16.875C20 16.4435 19.6503 16.0938 19.2188 16.0938C18.7872 16.0938 18.4375 16.4435 18.4375 16.875C18.4375 17.7365 17.7365 18.4375 16.875 18.4375H13.0469V12.7344H14.855C15.2504 12.7344 15.5835 12.439 15.6308 12.0465L15.7343 11.1871C15.7901 10.722 15.4271 10.3125 14.9585 10.3125H13.0469V7.69531C13.0469 7.04803 13.5715 6.52344 14.2188 6.52344H15.1953C15.6268 6.52344 15.9766 6.17371 15.9766 5.74219V4.95193C15.9766 4.5517 15.6743 4.21539 15.276 4.1748C14.8799 4.13452 14.4608 4.10156 14.2188 4.10156C13.3076 4.10156 12.3944 4.48593 11.7133 5.15594C11.0115 5.84625 10.625 6.75049 10.625 7.70218V10.3125H8.86719C8.43567 10.3125 8.08594 10.6622 8.08594 11.0938V11.9531C8.08594 12.3846 8.43567 12.7344 8.86719 12.7344H10.625V18.4375H3.125C2.26349 18.4375 1.5625 17.7365 1.5625 16.875V3.125C1.5625 2.26349 2.26349 1.5625 3.125 1.5625H16.875C17.7365 1.5625 18.4375 2.26349 18.4375 3.125V12.9688C18.4375 13.4003 18.7872 13.75 19.2188 13.75Z" fill="white"/>
</svg>
