<svg width="20" height="20" viewBox="0 0 20 20" fill="none" xmlns="http://www.w3.org/2000/svg">
<path d="M10.1969 20C10.1306 20 10.0644 20 9.99773 19.9997C8.43004 20.0035 6.98152 19.9637 5.57282 19.8779C4.28132 19.7993 3.10242 19.353 2.16339 18.5873C1.25733 17.8485 0.638581 16.8495 0.324402 15.6184C0.0509645 14.5466 0.0364686 13.4945 0.022583 12.4769C0.0125122 11.7468 0.00213623 10.8816 0 10.0018C0.00213623 9.11832 0.0125122 8.25314 0.022583 7.52301C0.0364686 6.50555 0.0509645 5.45345 0.324402 4.38152C0.638581 3.15043 1.25733 2.15144 2.16339 1.41261C3.10242 0.646918 4.28132 0.200598 5.57298 0.122015C6.98167 0.0364125 8.43049 -0.00356564 10.0015 0.000249068C11.5697 -0.00310788 13.0178 0.0364125 14.4264 0.122015C15.718 0.200598 16.8968 0.646918 17.8359 1.41261C18.7421 2.15144 19.3607 3.15043 19.6749 4.38152C19.9483 5.4533 19.9628 6.50555 19.9767 7.52301C19.9868 8.25314 19.9973 9.11832 19.9993 9.99814C19.9973 10.8816 19.9868 11.7468 19.9767 12.4769C19.9709 12.9085 19.6144 13.2533 19.1849 13.2475C18.7534 13.2416 18.4085 12.8869 18.4143 12.4556C18.4243 11.7297 18.4348 10.8702 18.4368 9.99814C18.4348 9.12976 18.4243 8.27023 18.4143 7.54437C18.4017 6.618 18.3885 5.66005 18.1609 4.76787C17.9312 3.86791 17.4897 3.14647 16.8485 2.62355C16.155 2.0579 15.3081 1.74098 14.3315 1.68162C12.956 1.598 11.5399 1.5594 10.0015 1.5626C8.45949 1.55894 7.04332 1.598 5.66773 1.68162C4.69117 1.74098 3.84446 2.0579 3.15079 2.62339C2.50962 3.14631 2.06803 3.86775 1.83838 4.76787C1.61072 5.66005 1.5976 6.618 1.58493 7.54437C1.57501 8.27023 1.56464 9.12976 1.5625 10.0018C1.56464 10.8702 1.57501 11.7297 1.58493 12.4556C1.5976 13.3819 1.61072 14.3399 1.83838 15.2321C2.06803 16.132 2.50962 16.8535 3.15079 17.3764C3.84446 17.942 4.69117 18.259 5.66773 18.3183C7.04332 18.4019 8.45979 18.441 9.99788 18.4372C11.5401 18.4409 12.956 18.4019 14.3315 18.3183C15.3081 18.259 16.1548 17.942 16.8485 17.3764C17.3104 16.9997 17.6712 16.5163 17.921 15.9395C18.0925 15.5437 18.5524 15.3616 18.9484 15.5331C19.3444 15.7046 19.5262 16.1645 19.3549 16.5605C19.0047 17.3691 18.4937 18.051 17.8359 18.5873C16.8968 19.3532 15.718 19.7993 14.4264 19.8779C13.0774 19.96 11.6916 20 10.1969 20ZM14.8433 9.99997C14.8433 7.30755 12.6529 5.11715 9.9605 5.11715C7.26823 5.11715 5.07768 7.30755 5.07768 9.99997C5.07768 12.6924 7.26823 14.8828 9.9605 14.8828C12.6529 14.8828 14.8433 12.6924 14.8433 9.99997ZM13.2808 9.99997C13.2808 11.8307 11.7914 13.3203 9.9605 13.3203C8.12974 13.3203 6.64018 11.8307 6.64018 9.99997C6.64018 8.16922 8.12974 6.67965 9.9605 6.67965C11.7914 6.67965 13.2808 8.16922 13.2808 9.99997ZM15.3902 3.55464C14.7431 3.55464 14.2183 4.07924 14.2183 4.72652C14.2183 5.3738 14.7431 5.8984 15.3902 5.8984C16.0375 5.8984 16.5621 5.3738 16.5621 4.72652C16.5621 4.07924 16.0375 3.55464 15.3902 3.55464Z" fill="#E6ECF8"/>
</svg>
