<svg width="64" height="64" viewBox="0 0 64 64" fill="none" xmlns="http://www.w3.org/2000/svg">
<path d="M41.001 36.9998V27.0508C39.1178 27.2399 37.3269 27.9595 35.8365 29.126C34.3461 30.2926 33.2173 31.8581 32.5814 33.6408C31.9454 35.4234 31.8285 37.3499 32.244 39.1964C32.6596 41.0429 33.5906 42.7335 34.9289 44.0718C36.2673 45.4101 37.9579 46.3412 39.8044 46.7567C41.6509 47.1723 43.5774 47.0553 45.36 46.4194C47.1426 45.7835 48.7082 44.6547 49.8747 43.1643C51.0413 41.6738 51.7609 39.883 51.95 37.9998H42.001C41.7358 37.9998 41.4814 37.8944 41.2939 37.7069C41.1063 37.5194 41.001 37.265 41.001 36.9998Z" fill="#B0E1FF"/>
<path d="M43 27.0508V35.9998H51.949C51.7154 33.706 50.6976 31.563 49.0672 29.9326C47.4368 28.3022 45.2938 27.2843 43 27.0508Z" fill="#B0E1FF"/>
<path d="M62 20H22C21.7348 20 21.4804 20.1054 21.2929 20.2929C21.1054 20.4804 21 20.7348 21 21C21 21.2652 21.1054 21.5196 21.2929 21.7071C21.4804 21.8946 21.7348 22 22 22H23V53C23 53.2652 23.1054 53.5196 23.2929 53.7071C23.4804 53.8946 23.7348 54 24 54H41V56.163C40.1943 56.4032 39.502 56.9254 39.0497 57.634C38.5974 58.3427 38.4153 59.1905 38.5367 60.0224C38.658 60.8543 39.0748 61.6147 39.7107 62.1646C40.3467 62.7145 41.1593 63.0171 42 63.0171C42.8407 63.0171 43.6533 62.7145 44.2893 62.1646C44.9252 61.6147 45.342 60.8543 45.4633 60.0224C45.5847 59.1905 45.4026 58.3427 44.9503 57.634C44.498 56.9254 43.8057 56.4032 43 56.163V54H60C60.2652 54 60.5196 53.8946 60.7071 53.7071C60.8946 53.5196 61 53.2652 61 53V22H62C62.2652 22 62.5196 21.8946 62.7071 21.7071C62.8946 21.5196 63 21.2652 63 21C63 20.7348 62.8946 20.4804 62.7071 20.2929C62.5196 20.1054 62.2652 20 62 20ZM42 49C39.6266 49 37.3065 48.2962 35.3332 46.9776C33.3598 45.6591 31.8217 43.7849 30.9134 41.5922C30.0052 39.3995 29.7676 36.9867 30.2306 34.6589C30.6936 32.3311 31.8365 30.1929 33.5147 28.5147C35.1929 26.8365 37.3311 25.6936 39.6589 25.2306C41.9867 24.7676 44.3995 25.0052 46.5922 25.9134C48.7849 26.8217 50.6591 28.3598 51.9776 30.3332C53.2962 32.3065 54 34.6266 54 37C53.9966 40.1815 52.7312 43.2318 50.4815 45.4815C48.2318 47.7312 45.1815 48.9966 42 49ZM58 30H56C55.7348 30 55.4804 29.8946 55.2929 29.7071C55.1054 29.5196 55 29.2652 55 29C55 28.7348 55.1054 28.4804 55.2929 28.2929C55.4804 28.1054 55.7348 28 56 28H58C58.2652 28 58.5196 28.1054 58.7071 28.2929C58.8946 28.4804 59 28.7348 59 29C59 29.2652 58.8946 29.5196 58.7071 29.7071C58.5196 29.8946 58.2652 30 58 30ZM58 26H54C53.7348 26 53.4804 25.8946 53.2929 25.7071C53.1054 25.5196 53 25.2652 53 25C53 24.7348 53.1054 24.4804 53.2929 24.2929C53.4804 24.1054 53.7348 24 54 24H58C58.2652 24 58.5196 24.1054 58.7071 24.2929C58.8946 24.4804 59 24.7348 59 25C59 25.2652 58.8946 25.5196 58.7071 25.7071C58.5196 25.8946 58.2652 26 58 26Z" fill="#B0E1FF"/>
<path d="M26 29H18C13.4944 29.01 9.17622 30.8043 5.99027 33.9903C2.80433 37.1762 1.01004 41.4944 1 46V48C1 48.7956 1.31607 49.5587 1.87868 50.1213C2.44129 50.6839 3.20435 51 4 51H40C40.7957 51 41.5587 50.6839 42.1213 50.1213C42.6839 49.5587 43 48.7956 43 48V46C42.99 41.4944 41.1957 37.1762 38.0097 33.9903C34.8238 30.8043 30.5056 29.01 26 29ZM26 31C27.0642 31.0013 28.1252 31.1163 29.165 31.343L23.279 49H20.721L14.835 31.343C15.8748 31.1163 16.9358 31.0013 18 31H26ZM3 48V46C3.00546 42.9171 3.95989 39.9106 5.73361 37.389C7.50733 34.8675 10.0143 32.9531 12.914 31.906L18.612 49H4C3.73478 49 3.48043 48.8946 3.29289 48.7071C3.10536 48.5196 3 48.2652 3 48ZM41 48C41 48.2652 40.8946 48.5196 40.7071 48.7071C40.5196 48.8946 40.2652 49 40 49H25.388L31.088 31.906C33.9873 32.9534 36.4939 34.8679 38.2672 37.3895C40.0406 39.911 40.9947 42.9173 41 46V48Z" fill="#003161"/>
<path d="M22 27C24.5711 27 27.0846 26.2376 29.2224 24.8091C31.3602 23.3807 33.0265 21.3503 34.0104 18.9749C34.9944 16.5994 35.2518 13.9856 34.7502 11.4638C34.2486 8.94208 33.0105 6.6257 31.1924 4.80762C29.3743 2.98953 27.0579 1.75141 24.5362 1.2498C22.0144 0.748189 19.4005 1.00563 17.0251 1.98957C14.6497 2.97351 12.6194 4.63975 11.1909 6.77759C9.76244 8.91543 9 11.4288 9 14C9.00397 17.4466 10.3749 20.7509 12.812 23.188C15.2491 25.6251 18.5534 26.996 22 27ZM22 25C19.242 24.9958 16.5861 23.9566 14.5576 22.088C12.5292 20.2193 11.276 17.6574 11.046 14.909L14.046 14.637C15.7173 14.4898 17.3239 13.9206 18.7152 12.9828C20.1064 12.0449 21.2366 10.7691 22 9.275C22.7632 10.7688 23.8931 12.0445 25.284 12.9823C26.6748 13.9201 28.281 14.4895 29.952 14.637L32.952 14.909C32.722 17.657 31.4691 20.2187 29.4411 22.0873C27.4131 23.9559 24.7576 24.9953 22 25ZM22 3.00001C24.7258 3.00357 27.3535 4.01772 29.375 5.84634C31.3964 7.67497 32.6681 10.1882 32.944 12.9L30.133 12.645C28.3504 12.4879 26.6737 11.7314 25.3764 10.4987C24.0791 9.26612 23.2379 7.63023 22.99 5.85801C22.956 5.61964 22.8372 5.40153 22.6553 5.24374C22.4735 5.08595 22.2408 4.99907 22 4.99907C21.7592 4.99907 21.5265 5.08595 21.3447 5.24374C21.1628 5.40153 21.044 5.61964 21.01 5.85801C20.7621 7.63008 19.921 9.26585 18.624 10.4984C17.3269 11.731 15.6504 12.4877 13.868 12.645L11.056 12.9C11.3319 10.1882 12.6036 7.67497 14.625 5.84634C16.6465 4.01772 19.2742 3.00357 22 3.00001Z" fill="#003161"/>
</svg>
