<svg width="20" height="20" viewBox="0 0 20 20" fill="none" xmlns="http://www.w3.org/2000/svg">
<path d="M19.9981 16.1154C19.9702 15.3417 19.648 14.6198 19.0908 14.0825C17.9997 13.0304 17.0855 12.423 16.2139 12.1712C15.0129 11.8241 13.9004 12.1397 12.9076 13.1093C12.9061 13.1107 12.9046 13.1122 12.9031 13.1137L11.8469 14.1621C11.1868 13.79 9.90317 12.9729 8.51636 11.5861L8.41355 11.4834C7.02651 10.0964 6.20951 8.81256 5.83775 8.15318L6.8862 7.09689C6.88768 7.09541 6.88917 7.09392 6.89065 7.0924C7.86023 6.09966 8.17585 4.98723 7.82878 3.78609C7.57687 2.91449 6.96956 2.00034 5.91744 0.909282C5.38017 0.35213 4.65826 0.0298633 3.88462 0.00197252C3.11051 -0.0259573 2.3677 0.243497 1.7916 0.760609L1.76918 0.780765C1.75879 0.790101 1.74863 0.79975 1.73871 0.809633C0.59187 1.95647 -0.00930522 3.56199 0.00010889 5.45266C0.0161637 8.66448 1.78137 12.3375 4.72197 15.278C5.27646 15.8325 5.90666 16.3813 6.59502 16.9091C6.93741 17.1716 7.4278 17.1069 7.69034 16.7645C7.95292 16.4221 7.88816 15.9317 7.54573 15.6691C6.91155 15.1828 6.33323 14.6795 5.82682 14.1733C3.17071 11.5171 1.5766 8.25424 1.56258 5.44489C1.55535 3.98879 1.99336 2.77343 2.82942 1.92866L2.8354 1.92327C3.40325 1.41354 4.26298 1.44456 4.79275 1.9939C6.81538 4.09148 6.66893 5.08176 5.77518 5.99825L4.32697 7.45732C4.09986 7.68615 4.03661 8.031 4.16775 8.32553C4.2045 8.40811 5.09392 10.3735 7.30897 12.5885L7.41183 12.6912C9.6266 14.906 11.592 15.7954 11.6746 15.8322C11.969 15.9634 12.314 15.9001 12.5427 15.673L14.0019 14.2247C14.9185 13.3309 15.9087 13.1846 18.0062 15.2072C18.5556 15.7369 18.5866 16.5967 18.077 17.1644L18.0714 17.1706C17.2336 17.9998 16.0311 18.4375 14.5909 18.4375C14.579 18.4375 14.5671 18.4375 14.5552 18.4374C13.404 18.4317 12.0709 18.1161 10.7002 17.5248C10.3041 17.3539 9.84426 17.5366 9.6734 17.9328C9.5025 18.329 9.68512 18.7887 10.0813 18.9596C11.6658 19.643 13.1684 19.993 14.5474 19.9999C14.5621 20 14.5766 20 14.5913 20C16.4629 20 18.0525 19.3993 19.1905 18.2613C19.2004 18.2514 19.21 18.2413 19.2193 18.2309L19.2396 18.2083C19.7567 17.6323 20.0261 16.889 19.9981 16.1154Z" fill="#E6ECF8"/>
</svg>
