<svg width="21" height="18" viewBox="0 0 21 18" fill="none" xmlns="http://www.w3.org/2000/svg">
<path d="M19.731 0.391873C19.4985 0.196544 19.2171 0.0682111 18.9172 0.0206444C18.6173 -0.0269222 18.3101 0.00807211 18.0285 0.121873L0.846002 6.99937C0.59553 7.10342 0.381498 7.27934 0.230928 7.50492C0.0803575 7.73051 0 7.99565 0 8.26687C0 8.5381 0.0803575 8.80324 0.230928 9.02882C0.381498 9.25441 0.59553 9.43033 0.846002 9.53437L1.956 9.99187C2.13902 10.0693 2.34528 10.0709 2.52949 9.99639C2.7137 9.92186 2.86081 9.77727 2.9385 9.59437C2.97662 9.50329 2.99637 9.40558 2.99664 9.30685C2.9969 9.20811 2.97767 9.1103 2.94004 9.01902C2.90241 8.92773 2.84713 8.84478 2.77737 8.77491C2.7076 8.70504 2.62473 8.64964 2.5335 8.61187L1.7085 8.27437L18.591 1.52437C18.617 1.50846 18.6468 1.50004 18.6773 1.50004C18.7077 1.50004 18.7375 1.50846 18.7635 1.52437C18.788 1.54516 18.8065 1.57212 18.817 1.60245C18.8276 1.63278 18.8298 1.66538 18.8235 1.69687L15.741 16.0819C15.7309 16.1331 15.7076 16.1808 15.6734 16.2203C15.6392 16.2597 15.5953 16.2896 15.546 16.3069C15.4977 16.3261 15.4451 16.332 15.3936 16.3241C15.3422 16.3162 15.2939 16.2947 15.2535 16.2619L9.2535 11.5819L15.126 5.64937C15.2515 5.51922 15.3257 5.34814 15.335 5.16761C15.3443 4.98708 15.2882 4.80926 15.1768 4.66687C15.0654 4.52447 14.9064 4.42709 14.7289 4.39264C14.5515 4.35819 14.3676 4.38899 14.211 4.47937L5.601 9.57937C5.50537 9.62259 5.41988 9.6854 5.35004 9.76373C5.28021 9.84207 5.22759 9.93419 5.1956 10.0341C5.1636 10.1341 5.15293 10.2396 5.16428 10.344C5.17563 10.4483 5.20875 10.5491 5.2615 10.6398C5.31425 10.7305 5.38544 10.8091 5.47049 10.8706C5.55554 10.9321 5.65254 10.9751 5.75523 10.9967C5.85792 11.0183 5.964 11.0182 6.06663 10.9963C6.16925 10.9743 6.26613 10.9311 6.351 10.8694L9.9735 8.73187L8.211 10.5244C8.04976 10.6759 7.92403 10.8612 7.84282 11.067C7.76162 11.2728 7.72694 11.494 7.74127 11.7147C7.75561 11.9355 7.8186 12.1504 7.92575 12.344C8.03289 12.5375 8.18153 12.705 8.361 12.8344L14.361 17.4469C14.6768 17.6906 15.0646 17.8225 15.4635 17.8219C15.6759 17.8203 15.8865 17.7823 16.086 17.7094C16.3725 17.6065 16.6278 17.4318 16.8274 17.202C17.027 16.9722 17.1643 16.695 17.226 16.3969L20.286 2.02687C20.351 1.72964 20.3336 1.42032 20.2358 1.13222C20.138 0.844114 19.9635 0.588145 19.731 0.391873Z" fill="#E6ECF8"/>
</svg>
