<svg width="20" height="15" viewBox="0 0 20 15" fill="none" xmlns="http://www.w3.org/2000/svg">
<path d="M9.99929 14.4528C9.99761 14.4528 9.99578 14.4528 9.99395 14.4528C9.39047 14.4487 4.05537 14.4001 2.54384 13.9913C1.48747 13.7073 0.653573 12.8743 0.368844 11.8178C-0.0266649 10.333 -0.00148784 7.47423 0.00125875 7.24595C-0.00133525 7.01875 -0.0268175 4.13636 0.367623 2.63932C0.368081 2.63794 0.368386 2.63642 0.368844 2.63505C0.650369 1.59058 1.50303 0.731813 2.54124 0.447083C2.54384 0.44632 2.54658 0.44571 2.54918 0.444947C4.04362 0.0521852 9.38925 0.00411989 9.99395 0H10.0048C10.6098 0.00411989 15.9591 0.0527955 17.4567 0.46219C18.5111 0.745698 19.345 1.57852 19.6297 2.63505C20.0396 4.13026 20.0013 7.02058 19.9973 7.2632C19.9979 7.31691 19.9999 7.53618 19.9964 7.85982C19.9917 8.28844 19.6429 8.63268 19.2153 8.63268C19.2124 8.63268 19.2097 8.63268 19.2068 8.63252C18.7752 8.62794 18.4293 8.2744 18.4339 7.84303C18.4377 7.49696 18.4348 7.27373 18.4348 7.27144C18.4347 7.26335 18.4348 7.25511 18.4348 7.24687C18.4492 6.44822 18.4211 4.13605 18.122 3.0449C17.9807 2.52106 17.5695 2.11045 17.0478 1.97022C15.9435 1.66825 11.5911 1.57364 9.99929 1.5625C8.40795 1.57364 4.06056 1.6658 2.95018 1.95511C2.43855 2.09702 2.01802 2.52228 1.87779 3.04001C1.5305 4.36143 1.5633 7.2072 1.56361 7.23573V7.25633C1.55323 8.04552 1.5897 10.331 1.87794 11.4134C2.01771 11.9318 2.42894 12.3424 2.95048 12.4828C4.06575 12.7844 8.411 12.8792 9.99914 12.8903C11.5914 12.8792 15.9431 12.787 17.0501 12.4973C17.5706 12.3564 17.9809 11.9463 18.1211 11.4263C18.2334 11.0097 18.6622 10.763 19.0787 10.8754C19.4953 10.9877 19.742 11.4163 19.6297 11.8331C19.3449 12.8894 18.5111 13.7224 17.4535 14.0068C17.4522 14.0071 17.4506 14.0076 17.4493 14.0079C15.955 14.4007 10.6092 14.4487 10.0046 14.4528C10.003 14.4528 10.0011 14.4528 9.99929 14.4528ZM9.11489 10.1355L13.1055 7.83189C13.335 7.69929 13.4766 7.45347 13.4766 7.18736C13.4766 6.92125 13.335 6.67543 13.1055 6.54283L9.11489 4.2392C8.88616 4.10722 8.60479 4.10767 8.37667 4.24058C8.1484 4.37333 8.00786 4.61839 8.00786 4.88358V9.49098C8.00786 9.75618 8.1484 10.0012 8.37667 10.1341C8.49111 10.2008 8.61898 10.2342 8.74685 10.2342C8.87396 10.2342 9.00091 10.2013 9.11489 10.1355Z" fill="#E6ECF8"/>
</svg>
